<?xml version="1.0" encoding="utf-8"?>
<!-- Generator: Adobe Illustrator 24.1.0, SVG Export Plug-In . SVG Version: 6.00 Build 0)  -->
<svg version="1.1" id="Calque_1" xmlns="http://www.w3.org/2000/svg" xmlns:xlink="http://www.w3.org/1999/xlink" x="0px" y="0px"
	 viewBox="0 0 187.1 187.1" style="enable-background:new 0 0 187.1 187.1;" xml:space="preserve">
<g>
	<path d="M187.1,93.9c0.5,50.3-41.2,93.4-93.9,93.2C43.1,187-0.3,146.2,0,92.9C0.3,40.9,43-0.7,94.8,0
		C146.6,0.7,187.8,43.3,187.1,93.9z M41.9,149.9c30.2,28.4,77.4,26,105.7-1.9c28.5-28.2,30.1-74.1,4.8-103.8
		c-27-31.7-72.8-36.1-105.1-11.7C16,56.1,7.4,100.2,28.6,133.6c5.5-3.7,11.7-4,18.1-3.8c4.5,0.2,4.5,0.1,6-4.2
		c2.6-7.4,5.2-14.7,7.8-22.1c1.5-4.2,2.8-8.5,4.3-12.8c-1.2-0.7-2.3-1.2-3.2-1.8c-7.4-5.5-10.4-12.6-8.3-21.4
		c1.9-7.8,6.2-14.4,12.3-19.6c10.9-9.1,23.7-13.1,37.7-13.9c7.4-0.4,14.5,1.2,21.4,3.7c19.4,7.1,27.8,24.2,27,42.2
		c-0.3,7.4-2.1,14.8-4.8,21.8c-6.8,17.5-17.1,32.3-33.4,42.2c-10,6-20.9,8.5-32.4,5.3c-7.5-2.1-14.8-4.8-22.3-7.2
		c-1.2-0.4-2.8-0.9-3.7-0.4C50.6,144.3,46.2,147.2,41.9,149.9z M69.8,74.4c2.6-4.2,5-8.5,7.7-12.7c4.6-7.1,11.3-11.4,19.2-13.4
		c9.2-2.3,15,2.2,15.3,11.7c0.3,9.1-4.1,15.9-11.2,21.1c-6.1,4.5-13.1,7.2-20.3,9.2c-2.5,0.7-3.8,2-4.6,4.5
		c-1.7,5.4-3.8,10.6-5.6,16c-2.4,7.2-4.7,14.4-7.1,21.9c2.1,0.6,3.9,1.2,5.8,1.7c6.7,1.9,13.7,3.3,20.6,3.2
		c11.7-0.3,20.9-5.7,27.7-15.3c6.5-9.2,10.6-19.6,13.3-30.4c2.4-9.5,3.3-19.2,1.3-29.1c-2.5-11.9-12.6-20.4-24.7-20.9
		C96.9,41.7,88,44.9,80,51.3C72.5,57.2,69.5,65,69.8,74.4z M80.4,82c1.8-0.4,2.4-0.5,3-0.7c1.3-0.4,2.5-0.8,3.8-1.2
		C95,77,100.3,68.9,99.9,60.6c-0.1-3.2-1.2-4.3-4.3-3.4c-2.7,0.8-5,2.4-6.6,4.9C85.1,67.9,83.3,74.6,80.4,82z M46.5,137.8
		c-2.5-0.4-5-1.2-7.4,0.3c-0.5,0.3-1.1,1.2-0.9,1.5c0.3,0.6,1,1.3,1.6,1.4C42.6,141.3,44.7,139.9,46.5,137.8z"/>
</g>
</svg>
